<?xml version="1.0" encoding="iso-8859-1"?>
<!-- Generator: Adobe Illustrator 16.0.0, SVG Export Plug-In . SVG Version: 6.00 Build 0)  -->
<!DOCTYPE svg PUBLIC "-//W3C//DTD SVG 1.1//EN" "http://www.w3.org/Graphics/SVG/1.1/DTD/svg11.dtd">
<svg version="1.1" xmlns="http://www.w3.org/2000/svg" xmlns:xlink="http://www.w3.org/1999/xlink" x="0px" y="0px" width="64px"
	 height="64px" viewBox="0 0 64 64" style="enable-background:new 0 0 64 64;" xml:space="preserve">
<g id="ic_x5F_marker_x5F_green">
	<g>
		<g>
			<g>
				<polygon style="fill:#52B47B;" points="28.965,1.065 25.123,5.684 25.123,7.841 28.965,3.223 				"/>
				<polygon style="fill:#52B47B;" points="41.503,5.684 37.657,1.065 37.657,3.223 41.503,7.841 				"/>
				<rect x="19.774" y="10.229" style="fill:#52B47B;" width="5.349" height="2.156"/>
				<rect x="41.503" y="10.229" style="fill:#52B47B;" width="5.346" height="2.156"/>
			</g>
			<rect x="28.98" y="1.065" style="fill:#52B47B;" width="8.73" height="2.157"/>
		</g>
		<polyline style="fill-rule:evenodd;clip-rule:evenodd;fill:#52B47B;" points="19.931,53.249 46.479,53.249 33.205,61.797 		"/>
		<g>
			<polygon style="fill:#52B47B;" points="41.435,19.307 41.435,14.812 37.587,10.058 37.587,14.812 37.587,19.307 28.898,19.307 
				28.898,14.812 28.898,10.058 25.055,14.812 25.055,19.307 19.706,19.307 19.706,51.138 46.782,51.138 46.782,19.307 			"/>
			<rect x="28.913" y="10.058" style="fill:#52B47B;" width="8.729" height="4.337"/>
		</g>
		<g>
			<g>
				<polygon style="fill:#52B47B;" points="28.965,5.514 25.123,10.133 25.123,12.289 28.965,7.671 				"/>
				<polygon style="fill:#52B47B;" points="41.503,10.133 37.657,5.514 37.657,7.671 41.503,12.289 				"/>
				<rect x="19.774" y="14.678" style="fill:#52B47B;" width="5.349" height="2.157"/>
				<rect x="41.503" y="14.678" style="fill:#52B47B;" width="5.346" height="2.157"/>
			</g>
			<rect x="28.98" y="5.514" style="fill:#52B47B;" width="8.73" height="2.157"/>
		</g>
	</g>
</g>
<g id="Layer_1">
</g>
</svg>
