<?xml version="1.0" encoding="iso-8859-1"?>
<!-- Generator: Adobe Illustrator 16.0.0, SVG Export Plug-In . SVG Version: 6.00 Build 0)  -->
<!DOCTYPE svg PUBLIC "-//W3C//DTD SVG 1.1//EN" "http://www.w3.org/Graphics/SVG/1.1/DTD/svg11.dtd">
<svg version="1.1" xmlns="http://www.w3.org/2000/svg" xmlns:xlink="http://www.w3.org/1999/xlink" x="0px" y="0px" width="64px"
	 height="64px" viewBox="0 0 64 64" style="enable-background:new 0 0 64 64;" xml:space="preserve">
<g id="ic_x5F_menu_x5F_map">
	<rect x="20.188" y="0.82" style="opacity:0.6;fill:#FFFFFF;" width="11.908" height="6.911"/>
	<path style="opacity:0.6;fill:#FFFFFF;" d="M42.717,59.637l-0.418-1.3l-0.418-1.3l-0.418-1.302l-0.418-1.298l-0.418-1.302
		l-0.417-1.298c0,0-0.316-0.974-0.419-1.3c-0.203-0.652-0.698-2.289-0.835-2.6c-0.455-1.029-2.569-4.166-2.709-4.326
		c-0.139-0.162-0.273-0.327-0.402-0.496c-0.129-0.17-0.253-0.343-0.374-0.52c-0.119-0.176-0.234-0.356-0.345-0.541
		c-0.109-0.183-0.214-0.37-0.312-0.561c-0.1-0.189-0.192-0.383-0.28-0.581c-0.089-0.196-0.171-0.396-0.248-0.599
		c-0.076-0.203-0.147-0.408-0.212-0.616c-0.065-0.208-0.124-0.418-0.177-0.631c-0.053-0.214-0.1-0.43-0.14-0.647
		s-0.073-0.438-0.102-0.66c-0.026-0.222-0.048-0.446-0.062-0.672c-0.014-0.227-0.021-0.453-0.021-0.684
		c0-0.381,0.019-0.758,0.058-1.13c0.037-0.371,0.094-0.737,0.168-1.097c0.073-0.36,0.163-0.713,0.271-1.061
		c0.107-0.345,0.231-0.685,0.372-1.015c0.139-0.331,0.294-0.652,0.465-0.966c0.17-0.313,0.355-0.618,0.553-0.912
		c0.199-0.294,0.412-0.577,0.637-0.851c0.226-0.273,0.464-0.535,0.715-0.785c0.248-0.25,0.511-0.488,0.783-0.713
		c0.273-0.225,0.558-0.438,0.852-0.636c0.294-0.199,0.598-0.384,0.91-0.553c0.313-0.171,0.637-0.326,0.966-0.466
		c0.331-0.139,0.669-0.264,1.017-0.371c0.346-0.108,0.698-0.199,1.058-0.273c0.36-0.073,0.726-0.129,1.098-0.167
		c0.371-0.038,0.749-0.057,1.131-0.057V14.266h-7.31V7.73L32.063,0.82V7.73v6.536h-11.88V7.73V0.82L14.93,7.73v6.536H7.618v46.266
		h35.387L42.717,59.637z"/>
	<path style="opacity:0.6;fill-rule:evenodd;clip-rule:evenodd;fill:#FFFFFF;" d="M59.008,36.688
		c-0.038-0.34-0.094-0.676-0.166-1.006c-0.073-0.329-0.162-0.653-0.27-0.97c-0.105-0.316-0.229-0.627-0.367-0.931
		c-0.138-0.302-0.291-0.597-0.46-0.885c-0.168-0.286-0.351-0.564-0.548-0.834c-0.195-0.27-0.405-0.528-0.627-0.779
		c-0.223-0.25-0.458-0.49-0.705-0.72c-0.247-0.229-0.507-0.446-0.775-0.652c-0.271-0.206-0.551-0.401-0.841-0.583
		c-0.291-0.182-0.592-0.352-0.901-0.507c-0.309-0.156-0.627-0.298-0.954-0.426c-0.327-0.128-0.661-0.241-1.003-0.34
		c-0.343-0.099-0.692-0.183-1.047-0.25c-0.354-0.068-0.717-0.118-1.084-0.153c-0.367-0.034-0.738-0.052-1.116-0.052
		s-0.75,0.018-1.117,0.052c-0.367,0.035-0.729,0.085-1.084,0.153c-0.355,0.067-0.704,0.151-1.046,0.25
		c-0.343,0.099-0.677,0.212-1.004,0.34c-0.326,0.128-0.646,0.271-0.954,0.426c-0.31,0.156-0.61,0.326-0.9,0.507
		c-0.291,0.182-0.571,0.376-0.843,0.583c-0.268,0.206-0.527,0.424-0.774,0.652c-0.247,0.229-0.481,0.47-0.705,0.72
		c-0.222,0.251-0.433,0.51-0.629,0.779c-0.194,0.27-0.378,0.548-0.547,0.834c-0.168,0.288-0.322,0.583-0.459,0.885
		c-0.139,0.304-0.261,0.614-0.367,0.931c-0.107,0.316-0.197,0.641-0.27,0.97c-0.073,0.33-0.128,0.666-0.166,1.006
		c-0.037,0.34-0.056,0.687-0.056,1.035c0,0.211,0.006,0.419,0.021,0.626c0.014,0.206,0.034,0.412,0.061,0.616
		c0.027,0.202,0.061,0.404,0.101,0.604c0.038,0.199,0.085,0.397,0.137,0.592c0.052,0.195,0.11,0.39,0.176,0.578
		c0.064,0.19,0.134,0.38,0.21,0.565c0.075,0.185,0.156,0.368,0.243,0.549c0.088,0.181,0.181,0.358,0.277,0.531
		c0.099,0.175,0.202,0.347,0.31,0.515c0.109,0.169,0.223,0.333,0.34,0.494c0.119,0.163,0.243,0.32,0.37,0.475
		c0.128,0.156,0.262,0.308,0.397,0.455c0.139,0.147,2.228,3.02,2.677,3.963c0.136,0.284,0.625,1.784,0.826,2.381
		c0.101,0.3,0.412,1.191,0.412,1.191l0.414,1.189l0.413,1.191l0.412,1.188l0.413,1.192l0.413,1.19l0.414,1.188l0.412,1.193
		l0.413,1.188l0.414,1.192l0.411,1.188l0.81-0.004l0.396-1.194l0.397-1.194l0.396-1.193l0.396-1.195l0.397-1.192l0.396-1.197
		l0.396-1.192l0.396-1.194l0.396-1.195l0.396-1.194l0.396-1.194c0,0,0.661-2.103,0.793-2.39c0.436-0.941,2.472-3.821,2.605-3.967
		c0.135-0.148,0.266-0.3,0.391-0.453c0.124-0.153,0.246-0.311,0.36-0.472c0.116-0.16,0.229-0.324,0.333-0.491
		c0.106-0.166,0.208-0.338,0.303-0.512c0.096-0.171,0.187-0.346,0.271-0.525c0.085-0.179,0.165-0.36,0.239-0.544
		s0.142-0.371,0.204-0.56c0.063-0.188,0.121-0.379,0.172-0.573c0.051-0.19,0.096-0.388,0.135-0.585
		c0.038-0.197,0.071-0.396,0.098-0.597c0.026-0.202,0.045-0.405,0.06-0.609c0.013-0.206,0.02-0.411,0.02-0.619
		C59.063,37.375,59.044,37.028,59.008,36.688z M48.143,40.918c-1.968,0-3.564-1.534-3.564-3.429c0-1.892,1.597-3.426,3.564-3.426
		s3.564,1.534,3.564,3.426C51.707,39.384,50.11,40.918,48.143,40.918z"/>
</g>
<g id="Layer_1">
</g>
</svg>
