<?xml version="1.0" encoding="iso-8859-1"?>
<!-- Generator: Adobe Illustrator 16.0.0, SVG Export Plug-In . SVG Version: 6.00 Build 0)  -->
<!DOCTYPE svg PUBLIC "-//W3C//DTD SVG 1.1//EN" "http://www.w3.org/Graphics/SVG/1.1/DTD/svg11.dtd">
<svg version="1.1" xmlns="http://www.w3.org/2000/svg" xmlns:xlink="http://www.w3.org/1999/xlink" x="0px" y="0px" width="64px"
	 height="64px" viewBox="0 0 64 64" style="enable-background:new 0 0 64 64;" xml:space="preserve">
<g id="ic_x5F_menu_x5F_verlauf">
	<g style="opacity:0.6;">
		<g>
			<polygon style="fill:#FFFFFF;" points="28.359,8.62 28.359,14.985 39.903,14.985 39.903,14.117 31.119,14.117 31.119,8.62 			"/>
			<polygon style="fill:#FFFFFF;" points="47.771,14.117 47.771,7.752 42.665,1.262 31.036,1.262 31.036,1.369 30.435,2.131 
				39.903,2.131 45.01,8.62 45.01,14.985 52.114,14.985 52.114,57.564 54.875,57.564 54.875,14.117 			"/>
			<rect x="18.905" y="14.117" style="fill:#FFFFFF;" width="4.347" height="0.868"/>
		</g>
		<g>
			<rect x="13.14" y="16.461" style="fill:#FFFFFF;" width="4.54" height="0.868"/>
			<polygon style="fill:#FFFFFF;" points="22.786,10.964 22.786,17.33 34.331,17.33 34.331,16.461 25.354,16.461 25.354,10.964 			
				"/>
			<polygon style="fill:#FFFFFF;" points="42.005,16.461 42.005,10.096 36.899,3.606 25.27,3.606 25.27,3.713 24.67,4.475 
				34.331,4.475 39.437,10.964 39.437,17.33 46.542,17.33 46.542,59.909 49.11,59.909 49.11,16.461 			"/>
		</g>
		<g>
			<polygon style="fill:#FFFFFF;" points="37.351,19.244 37.351,12.878 32.245,6.389 32.245,12.878 32.245,19.244 20.698,19.244 
				20.698,12.878 20.698,6.389 15.592,12.878 15.592,19.244 8.486,19.244 8.486,62.691 44.454,62.691 44.454,19.244 			"/>
			<rect x="20.698" y="6.389" style="fill:#FFFFFF;" width="11.546" height="6.49"/>
		</g>
	</g>
</g>
<g id="Layer_1">
</g>
</svg>
