<?xml version="1.0" encoding="iso-8859-1"?>
<!-- Generator: Adobe Illustrator 16.0.0, SVG Export Plug-In . SVG Version: 6.00 Build 0)  -->
<!DOCTYPE svg PUBLIC "-//W3C//DTD SVG 1.1//EN" "http://www.w3.org/Graphics/SVG/1.1/DTD/svg11.dtd">
<svg version="1.1" xmlns="http://www.w3.org/2000/svg" xmlns:xlink="http://www.w3.org/1999/xlink" x="0px" y="0px" width="64px"
	 height="64px" viewBox="0 0 64 64" style="enable-background:new 0 0 64 64;" xml:space="preserve">
<g id="ic_x5F_menu_x5F_map_x5F_simple">
	<path style="opacity:0.6;fill-rule:evenodd;clip-rule:evenodd;fill:#FFFFFF;" d="M50.283,18.097
		c-0.063-0.546-0.158-1.084-0.277-1.614c-0.126-0.531-0.275-1.05-0.456-1.56c-0.179-0.509-0.387-1.008-0.619-1.495
		s-0.491-0.962-0.775-1.424c-0.281-0.461-0.589-0.909-0.921-1.342c-0.329-0.432-0.683-0.85-1.06-1.252
		c-0.374-0.401-0.771-0.787-1.187-1.154c-0.418-0.369-0.854-0.72-1.308-1.05c-0.455-0.332-0.926-0.645-1.416-0.938
		c-0.491-0.293-0.996-0.565-1.52-0.815c-0.519-0.25-1.056-0.48-1.607-0.686c-0.551-0.206-1.114-0.388-1.689-0.546
		C36.87,4.062,36.28,3.927,35.685,3.82c-0.599-0.109-1.208-0.191-1.829-0.248c-0.619-0.056-1.244-0.083-1.88-0.083
		c-0.636,0-1.265,0.028-1.882,0.083c-0.619,0.056-1.228,0.138-1.829,0.248c-0.596,0.107-1.186,0.243-1.76,0.401
		c-0.578,0.158-1.142,0.34-1.693,0.546c-0.55,0.206-1.089,0.436-1.607,0.686c-0.522,0.25-1.028,0.522-1.518,0.815
		c-0.489,0.293-0.963,0.606-1.417,0.938c-0.454,0.33-0.889,0.681-1.306,1.05c-0.417,0.368-0.812,0.753-1.188,1.154
		c-0.376,0.402-0.731,0.82-1.061,1.252c-0.329,0.433-0.637,0.88-0.921,1.342c-0.284,0.462-0.543,0.937-0.774,1.424
		c-0.233,0.487-0.44,0.986-0.62,1.495c-0.181,0.51-0.33,1.029-0.453,1.56c-0.124,0.53-0.216,1.068-0.278,1.614
		c-0.065,0.548-0.097,1.104-0.097,1.666c0,0.338,0.011,0.673,0.035,1.006c0.022,0.332,0.057,0.663,0.102,0.989
		c0.046,0.327,0.103,0.651,0.17,0.971c0.065,0.321,0.143,0.64,0.231,0.95c0.087,0.315,0.185,0.626,0.295,0.932
		c0.108,0.307,0.226,0.609,0.353,0.908c0.128,0.296,0.264,0.592,0.412,0.882c0.147,0.291,0.303,0.575,0.467,0.855
		c0.166,0.28,0.34,0.556,0.522,0.826c0.183,0.272,0.374,0.535,0.572,0.795c0.2,0.261,0.408,0.515,0.623,0.764
		c0.214,0.248,0.441,0.494,0.671,0.729c0.232,0.238,3.752,4.855,4.509,6.372c0.229,0.455,1.053,2.866,1.392,3.827
		c0.171,0.482,0.696,1.915,0.696,1.915l0.697,1.91l0.694,1.916l0.697,1.913l0.695,1.915l0.697,1.914l0.697,1.913l0.694,1.916
		l0.696,1.911l0.699,1.915l0.693,1.912l1.363-0.004l0.668-1.922l0.67-1.921l0.667-1.917l0.668-1.925l0.669-1.915l0.669-1.923
		l0.666-1.918l0.668-1.922l0.668-1.921l0.669-1.918l0.668-1.921c0,0,1.112-3.379,1.335-3.842c0.734-1.515,4.166-6.143,4.392-6.38
		c0.227-0.235,0.448-0.479,0.658-0.727c0.211-0.246,0.414-0.499,0.609-0.757c0.192-0.258,0.381-0.521,0.561-0.791
		c0.178-0.267,0.349-0.542,0.51-0.821c0.16-0.276,0.314-0.558,0.457-0.845c0.143-0.289,0.277-0.58,0.403-0.875
		c0.122-0.296,0.237-0.596,0.344-0.898c0.106-0.305,0.202-0.611,0.288-0.923c0.087-0.308,0.163-0.625,0.228-0.939
		c0.066-0.318,0.122-0.639,0.165-0.96c0.046-0.325,0.075-0.652,0.102-0.979c0.021-0.33,0.032-0.663,0.032-0.995
		C50.378,19.201,50.346,18.646,50.283,18.097z M31.974,24.896c-3.317,0-6.008-2.465-6.008-5.511c0-3.039,2.691-5.508,6.008-5.508
		c3.316,0,6.007,2.469,6.007,5.508C37.981,22.432,35.29,24.896,31.974,24.896z"/>
</g>
<g id="Layer_1">
</g>
</svg>
