<?xml version="1.0" encoding="iso-8859-1"?>
<!-- Generator: Adobe Illustrator 16.0.0, SVG Export Plug-In . SVG Version: 6.00 Build 0)  -->
<!DOCTYPE svg PUBLIC "-//W3C//DTD SVG 1.1//EN" "http://www.w3.org/Graphics/SVG/1.1/DTD/svg11.dtd">
<svg version="1.1" xmlns="http://www.w3.org/2000/svg" xmlns:xlink="http://www.w3.org/1999/xlink" x="0px" y="0px" width="64px"
	 height="64px" viewBox="0 0 64 64" style="enable-background:new 0 0 64 64;" xml:space="preserve">
<g id="ic_x5F_menu_x5F_list">
	<g style="opacity:0.6;">
		<path style="fill:#FFFFFF;" d="M37.814,14.014V8.432L33.15,2.556V2.531H22.512v0.028l-4.663,5.873v5.582h-6.522v39.511h33.009
			V14.014H37.814z M33.131,14.014H22.534V8.432h10.597V14.014z"/>
		<path style="fill:#FFFFFF;stroke:#FFFFFF;stroke-width:1.5;stroke-opacity:0;" d="M54.351,44.175c0,0.964-0.968,1.746-2.162,1.746
			H34.966c-1.197,0-2.165-0.782-2.165-1.746l0,0c0-0.961,0.967-1.741,2.165-1.741h17.223C53.383,42.434,54.351,43.214,54.351,44.175
			L54.351,44.175z"/>
		<path style="fill:#FFFFFF;stroke:#FFFFFF;stroke-width:1.5;stroke-opacity:0;" d="M54.351,50.058c0,0.963-0.968,1.745-2.162,1.745
			H34.966c-1.197,0-2.165-0.782-2.165-1.745l0,0c0-0.961,0.967-1.741,2.165-1.741h17.223C53.383,48.316,54.351,49.097,54.351,50.058
			L54.351,50.058z"/>
		<path style="fill:#FFFFFF;stroke:#FFFFFF;stroke-width:1.5;stroke-opacity:0;" d="M54.351,55.94c0,0.963-0.968,1.745-2.162,1.745
			H34.966c-1.197,0-2.165-0.782-2.165-1.745l0,0c0-0.962,0.967-1.742,2.165-1.742h17.223C53.383,54.198,54.351,54.979,54.351,55.94
			L54.351,55.94z"/>
	</g>
</g>
<g id="Layer_1">
</g>
</svg>
