<?xml version="1.0" encoding="iso-8859-1"?>
<!-- Generator: Adobe Illustrator 16.0.0, SVG Export Plug-In . SVG Version: 6.00 Build 0)  -->
<!DOCTYPE svg PUBLIC "-//W3C//DTD SVG 1.1//EN" "http://www.w3.org/Graphics/SVG/1.1/DTD/svg11.dtd">
<svg version="1.1" xmlns="http://www.w3.org/2000/svg" xmlns:xlink="http://www.w3.org/1999/xlink" x="0px" y="0px" width="64px"
	 height="64px" viewBox="0 0 64 64" style="enable-background:new 0 0 64 64;" xml:space="preserve">
<g id="ic_x5F_menu_x5F_list_x5F_simple">
	<line style="opacity:0.6;fill:#3C3C3B;" x1="38.624" y1="35.135" x2="38.624" y2="28.165"/>
	<line style="opacity:0.6;fill:#3C3C3B;" x1="38.624" y1="52.499" x2="38.624" y2="45.53"/>
	<path style="opacity:0.6;fill:#FFFFFF;" d="M61.751,14.972c0,2.959-2.701,5.361-6.035,5.361H7.651
		c-3.343,0-6.041-2.402-6.041-5.361l0,0c0-2.953,2.698-5.35,6.041-5.35h48.064C59.05,9.622,61.751,12.019,61.751,14.972
		L61.751,14.972z"/>
	<path style="opacity:0.6;fill:#FFFFFF;" d="M62,32.86c0,2.955-2.698,5.357-6.035,5.357H7.897c-3.334,0-6.035-2.402-6.035-5.357l0,0
		c0-2.953,2.701-5.354,6.035-5.354h48.067C59.302,27.507,62,29.907,62,32.86L62,32.86z"/>
	<path style="opacity:0.6;fill:#FFFFFF;" d="M62,50.745c0,2.957-2.698,5.359-6.035,5.359H7.897c-3.334,0-6.035-2.402-6.035-5.359
		l0,0c0-2.953,2.701-5.352,6.035-5.352h48.067C59.302,45.394,62,47.792,62,50.745L62,50.745z"/>
</g>
<g id="Layer_1">
</g>
</svg>
