<?xml version="1.0" encoding="iso-8859-1"?>
<!-- Generator: Adobe Illustrator 16.0.0, SVG Export Plug-In . SVG Version: 6.00 Build 0)  -->
<!DOCTYPE svg PUBLIC "-//W3C//DTD SVG 1.1//EN" "http://www.w3.org/Graphics/SVG/1.1/DTD/svg11.dtd">
<svg version="1.1" xmlns="http://www.w3.org/2000/svg" xmlns:xlink="http://www.w3.org/1999/xlink" x="0px" y="0px" width="64px"
	 height="64px" viewBox="0 0 64 64" style="enable-background:new 0 0 64 64;" xml:space="preserve">
<g id="ic_x5F_stat_x5F_rating_x5F_2_x5F_light">
	<g id="XMLID_2_" style="opacity:0.6;">
		<g>
			<polygon style="fill:#333333;" points="32.735,14.873 32.735,62.062 32.735,62.143 13.945,62.143 13.945,14.873 21.425,14.873 
				21.425,8.192 26.765,1.172 26.765,1.132 32.735,1.132 32.735,7.933 32.735,8.192 26.795,8.192 26.795,14.873 			"/>
		</g>
		<g>
			<polygon style="fill:none;stroke:#333333;stroke-miterlimit:10;" points="32.735,62.143 51.785,62.143 51.785,14.873 
				44.305,14.873 44.305,8.192 38.965,1.163 38.965,1.132 32.735,1.132 26.765,1.132 26.765,1.172 21.425,8.192 21.425,14.873 
				13.945,14.873 13.945,62.143 			"/>
			<polygon style="fill:none;stroke:#333333;stroke-miterlimit:10;" points="32.735,8.192 38.935,8.192 38.935,14.873 
				32.735,14.873 26.795,14.873 26.795,8.192 			"/>
			<polyline style="fill:none;stroke:#333333;stroke-miterlimit:10;" points="32.735,14.433 32.735,14.873 32.735,62.062 			"/>
			<polyline style="fill:none;stroke:#333333;stroke-miterlimit:10;" points="32.735,1.062 32.735,1.132 32.735,7.933 			"/>
		</g>
	</g>
</g>
<g id="Layer_1">
</g>
</svg>
