<?xml version="1.0" encoding="iso-8859-1"?>
<!-- Generator: Adobe Illustrator 16.0.0, SVG Export Plug-In . SVG Version: 6.00 Build 0)  -->
<!DOCTYPE svg PUBLIC "-//W3C//DTD SVG 1.1//EN" "http://www.w3.org/Graphics/SVG/1.1/DTD/svg11.dtd">
<svg version="1.1" xmlns="http://www.w3.org/2000/svg" xmlns:xlink="http://www.w3.org/1999/xlink" x="0px" y="0px" width="64px"
	 height="64px" viewBox="0 0 64 64" style="enable-background:new 0 0 64 64;" xml:space="preserve">
<g id="ic_x5F_sackerl_x5F_ph_x5F_light">
	<g style="opacity:0.8;">
		<path style="fill:#FFFFFF;" d="M32.223,42.474c0,1.411,0.317,2.756,0.888,3.981c0.574,1.225,1.403,2.323,2.431,3.249
			c1.025,0.927,2.245,1.673,3.598,2.19c1.354,0.519,3.236-1.345,4.801-1.345c1.562,0,2.9,1.484,4.02,1.345
			c1.442-0.176,2.575-1.264,3.597-2.19c1.025-0.926,1.855-2.024,2.429-3.249c0.57-1.226,0.89-2.57,0.89-3.981
			c0-1.412-0.319-2.758-0.89-3.979c-0.573-1.226-1.403-2.326-2.429-3.25c-1.021-0.929-2.244-1.675-3.597-2.192
			c-1.355-0.516-2.771,0.977-4.334,0.977s-3.133-1.492-4.486-0.977c-1.353,0.518-2.572,1.264-3.598,2.192
			c-1.027,0.924-1.856,2.024-2.431,3.25C32.54,39.716,32.223,41.062,32.223,42.474z"/>
		<path style="fill:#FFFFFF;" d="M43.855,32.583c0-2.95,2.002-5.336,4.476-5.336"/>
	</g>
	<rect y="-0.125" style="opacity:0.8;fill:none;stroke:#FFFFFF;stroke-width:8;stroke-miterlimit:10;" width="64" height="64.125"/>
	<g style="opacity:0.8;">
		<path style="fill:#FFFFFF;" d="M38.399,54.241c-1.735-0.658-3.303-1.612-4.616-2.793c-1.317-1.18-2.381-2.582-3.115-4.143
			c-0.733-1.562-1.141-3.276-1.141-5.076c0-1.801,0.407-3.515,1.141-5.076c0.733-1.559,1.797-2.963,3.115-4.143
			c1.313-1.184,2.881-2.136,4.616-2.796c0.733-0.277,1.513-0.099,2.322,0.202v-10.88h-5.971v-4.904l-4.272-5.163V9.447h-9.743v0.025
			l-4.271,5.161v4.904h-5.971V54.25H38.43C38.42,54.246,38.409,54.245,38.399,54.241z M20.757,14.632h9.702v4.904h-9.702V14.632z"/>
	</g>
</g>
<g id="Layer_1">
</g>
</svg>
